<svg width="590" height="590" viewBox="0 0 590 590" fill="none" xmlns="http://www.w3.org/2000/svg">
<circle cx="295" cy="295" r="295" fill="#FF6200"/>
<mask id="mask0_116_116" style="mask-type:luminance" maskUnits="userSpaceOnUse" x="0" y="0" width="590" height="590">
<circle cx="295" cy="295" r="295" fill="white"/>
</mask>
<g mask="url(#mask0_116_116)">
<path fill-rule="evenodd" clip-rule="evenodd" d="M38.5222 298.041C45.2407 298.041 50.6871 303.487 50.6871 310.206C50.6871 316.924 45.2407 322.371 38.5222 322.371H-119.622C-126.341 322.371 -131.787 316.924 -131.787 310.206C-131.787 303.487 -126.341 298.041 -119.622 298.041H38.5222ZM261.546 298.041C268.265 298.041 273.711 303.487 273.711 310.206C273.711 316.924 268.265 322.371 261.546 322.371H182.474L182.475 322.381C175.991 322.647 170.816 327.987 170.816 334.536C170.816 341.085 175.991 346.425 182.475 346.69L182.474 346.701H344.674C351.392 346.701 356.839 352.147 356.839 358.866C356.839 365.584 351.392 371.031 344.674 371.031H84.1409C77.4224 371.031 71.976 365.584 71.976 358.866C71.976 352.147 77.4224 346.701 84.1409 346.701H133.814C140.533 346.701 145.979 341.254 145.979 334.536C145.979 327.817 140.533 322.371 133.814 322.371H103.402C96.6835 322.371 91.2371 316.924 91.2371 310.206C91.2371 303.487 96.6835 298.041 103.402 298.041H261.546ZM53.7285 395.361C60.447 395.361 65.8934 400.807 65.8934 407.526C65.8934 414.244 60.447 419.691 53.7285 419.691H-20.275C-26.9935 419.691 -32.4399 414.244 -32.4399 407.526C-32.4399 400.807 -26.9935 395.361 -20.275 395.361H53.7285ZM344.674 395.361C351.392 395.361 356.839 400.807 356.839 407.526C356.839 414.244 351.392 419.691 344.674 419.691H270.67C263.952 419.691 258.505 414.244 258.505 407.526C258.505 400.807 263.952 395.361 270.67 395.361H344.674ZM612.303 407.526C612.303 400.807 606.856 395.361 600.138 395.361H431.856C425.137 395.361 419.691 400.807 419.691 407.526C419.691 414.244 425.137 419.691 431.856 419.691H600.138C606.856 419.691 612.303 414.244 612.303 407.526ZM419.691 322.371C426.409 322.371 431.856 327.817 431.856 334.536C431.856 341.254 426.409 346.701 419.691 346.701H410.567C403.849 346.701 398.402 352.147 398.402 358.866C398.402 365.584 403.849 371.031 410.567 371.031H671.1C677.818 371.031 683.265 365.584 683.265 358.866C683.265 352.147 677.818 346.701 671.1 346.701H468.351L468.351 346.69C461.867 346.425 456.692 341.085 456.692 334.536C456.692 327.987 461.867 322.647 468.351 322.381L468.351 322.371H492.68C499.399 322.371 504.845 316.924 504.845 310.206C504.845 303.487 499.399 298.041 492.68 298.041H334.536C327.818 298.041 322.371 303.487 322.371 310.206C322.371 316.924 327.818 322.371 334.536 322.371H419.691ZM721.787 310.206C721.787 303.488 716.34 298.041 709.622 298.041H551.477C544.759 298.041 539.312 303.488 539.312 310.206C539.312 316.925 544.759 322.371 551.477 322.371H709.622C716.34 322.371 721.787 316.925 721.787 310.206Z" fill="#FF9D00"/>
</g>
<mask id="mask1_116_116" style="mask-type:luminance" maskUnits="userSpaceOnUse" x="0" y="0" width="590" height="590">
<circle cx="295" cy="295" r="295" fill="white"/>
</mask>
<g mask="url(#mask1_116_116)">
<path d="M161.186 407.526C161.186 400.807 155.739 395.361 149.021 395.361H119.622C112.903 395.361 107.457 389.914 107.457 383.196C107.457 376.477 112.903 371.031 119.622 371.031H222.01C228.729 371.031 234.175 376.477 234.175 383.196C234.175 389.914 228.729 395.361 222.01 395.361H218.969L218.968 395.371C212.485 395.637 207.311 400.977 207.311 407.526C207.311 414.074 212.485 419.414 218.968 419.68L218.969 419.691H222.01C228.729 419.691 234.175 425.137 234.175 431.856C234.175 438.574 228.729 444.02 222.01 444.02H144.966C138.247 444.02 132.801 438.574 132.801 431.856C132.801 425.137 138.247 419.691 144.966 419.691H149.021C155.739 419.691 161.186 414.244 161.186 407.526Z" fill="#FFBA0A"/>
</g>
<mask id="mask2_116_116" style="mask-type:luminance" maskUnits="userSpaceOnUse" x="0" y="0" width="590" height="590">
<circle cx="295" cy="295" r="295" fill="white"/>
</mask>
<g mask="url(#mask2_116_116)">
<path fill-rule="evenodd" clip-rule="evenodd" d="M472.406 54.7422C465.687 54.7422 460.241 60.1886 460.241 66.9071C460.241 73.6257 465.687 79.0721 472.406 79.0721H630.55C637.268 79.0721 642.715 73.6257 642.715 66.9071C642.715 60.1886 637.268 54.7422 630.55 54.7422H472.406ZM249.381 54.7422C242.663 54.7422 237.216 60.1886 237.216 66.9071C237.216 73.6257 242.663 79.0721 249.381 79.0721H328.454L328.453 79.0824C334.937 79.348 340.112 84.6882 340.112 91.237C340.112 97.7859 334.937 103.126 328.453 103.392L328.454 103.402H166.254C159.536 103.402 154.089 108.848 154.089 115.567C154.089 122.285 159.536 127.732 166.254 127.732H426.787C433.505 127.732 438.952 122.285 438.952 115.567C438.952 108.848 433.505 103.402 426.787 103.402H377.113C370.395 103.402 364.948 97.9556 364.948 91.237C364.948 84.5185 370.395 79.0721 377.113 79.0721H407.526C414.244 79.0721 419.691 73.6257 419.691 66.9071C419.691 60.1886 414.244 54.7422 407.526 54.7422H249.381ZM457.199 152.062C450.481 152.062 445.034 157.508 445.034 164.227C445.034 170.945 450.481 176.392 457.199 176.392H531.203C537.921 176.392 543.368 170.945 543.368 164.227C543.368 157.508 537.921 152.062 531.203 152.062H457.199ZM166.254 152.062C159.536 152.062 154.09 157.508 154.09 164.227C154.09 170.945 159.536 176.392 166.254 176.392H240.258C246.976 176.392 252.423 170.945 252.423 164.227C252.423 157.508 246.976 152.062 240.258 152.062H166.254ZM-101.374 164.227C-101.374 157.508 -95.9279 152.062 -89.2094 152.062H79.0723C85.7909 152.062 91.2373 157.508 91.2373 164.227C91.2373 170.945 85.7909 176.392 79.0723 176.392H-89.2094C-95.9279 176.392 -101.374 170.945 -101.374 164.227ZM91.2371 79.0721C84.5186 79.0721 79.0721 84.5185 79.0721 91.237C79.0721 97.9556 84.5186 103.402 91.2371 103.402H100.361C107.079 103.402 112.526 108.848 112.526 115.567C112.526 122.285 107.079 127.732 100.361 127.732H-160.172C-166.89 127.732 -172.337 122.285 -172.337 115.567C-172.337 108.848 -166.89 103.402 -160.172 103.402H42.5773L42.577 103.392C49.0605 103.126 54.2354 97.7859 54.2354 91.237C54.2354 84.6882 49.0605 79.348 42.577 79.0824L42.5773 79.0721H18.2474C11.5289 79.0721 6.08246 73.6257 6.08246 66.9071C6.08246 60.1886 11.5289 54.7422 18.2474 54.7422H176.392C183.11 54.7422 188.557 60.1886 188.557 66.9071C188.557 73.6257 183.11 79.0721 176.392 79.0721H91.2371ZM-210.859 66.9071C-210.859 60.1886 -205.413 54.7422 -198.694 54.7422H-40.5499C-33.8313 54.7422 -28.3849 60.1886 -28.3849 66.9071C-28.3849 73.6257 -33.8313 79.0721 -40.5499 79.0721H-198.694C-205.413 79.0721 -210.859 73.6257 -210.859 66.9071Z" fill="#FFC402"/>
</g>
<mask id="mask3_116_116" style="mask-type:luminance" maskUnits="userSpaceOnUse" x="0" y="0" width="590" height="590">
<circle cx="295" cy="295" r="295" fill="white"/>
</mask>
<g mask="url(#mask3_116_116)">
<path fill-rule="evenodd" clip-rule="evenodd" d="M632.577 444.021C625.859 444.021 620.413 449.467 620.413 456.185C620.413 462.904 625.859 468.35 632.577 468.35H790.722C797.44 468.35 802.887 462.904 802.887 456.185C802.887 449.467 797.44 444.021 790.722 444.021H632.577ZM409.553 444.021C402.835 444.021 397.388 449.467 397.388 456.185C397.388 462.904 402.835 468.35 409.553 468.35H488.625L488.625 468.361C495.109 468.626 500.284 473.967 500.284 480.515C500.284 487.064 495.109 492.404 488.625 492.67L488.625 492.68H326.426C319.708 492.68 314.261 498.127 314.261 504.845C314.261 511.564 319.708 517.01 326.426 517.01H586.959C593.677 517.01 599.124 511.564 599.124 504.845C599.124 498.127 593.677 492.68 586.959 492.68H537.285C530.567 492.68 525.12 487.234 525.12 480.515C525.12 473.797 530.567 468.35 537.285 468.35H567.698C574.416 468.35 579.863 462.904 579.863 456.185C579.863 449.467 574.416 444.021 567.698 444.021H409.553ZM617.371 541.34C610.653 541.34 605.206 546.787 605.206 553.505C605.206 560.224 610.653 565.67 617.371 565.67H691.375C698.093 565.67 703.54 560.224 703.54 553.505C703.54 546.787 698.093 541.34 691.375 541.34H617.371ZM326.426 541.34C319.708 541.34 314.261 546.787 314.261 553.505C314.261 560.224 319.708 565.67 326.426 565.67H400.43C407.148 565.67 412.595 560.224 412.595 553.505C412.595 546.787 407.148 541.34 400.43 541.34H326.426ZM58.7975 553.505C58.7975 546.787 64.244 541.34 70.9625 541.34H239.244C245.963 541.34 251.409 546.787 251.409 553.505C251.409 560.224 245.963 565.67 239.244 565.67H70.9625C64.244 565.67 58.7975 560.224 58.7975 553.505ZM251.409 468.35C244.69 468.35 239.244 473.797 239.244 480.515C239.244 487.234 244.69 492.68 251.409 492.68H260.533C267.251 492.68 272.698 498.127 272.698 504.845C272.698 511.564 267.251 517.01 260.533 517.01H0C-6.71851 517.01 -12.1649 511.564 -12.1649 504.845C-12.1649 498.127 -6.71851 492.68 0 492.68H202.749L202.749 492.67C209.232 492.404 214.407 487.064 214.407 480.515C214.407 473.967 209.232 468.626 202.749 468.361L202.749 468.35H178.419C171.701 468.35 166.254 462.904 166.254 456.185C166.254 449.467 171.701 444.021 178.419 444.021H336.564C343.282 444.021 348.729 449.467 348.729 456.185C348.729 462.904 343.282 468.35 336.564 468.35H251.409ZM-50.6873 456.185C-50.6873 449.467 -45.2408 444.021 -38.5223 444.021H119.622C126.341 444.021 131.787 449.467 131.787 456.185C131.787 462.904 126.341 468.35 119.622 468.35H-38.5223C-45.2408 468.35 -50.6873 462.904 -50.6873 456.185Z" fill="#FE3419"/>
</g>
<mask id="mask4_116_116" style="mask-type:luminance" maskUnits="userSpaceOnUse" x="0" y="0" width="590" height="590">
<circle cx="295" cy="295" r="295" fill="white"/>
</mask>
<g mask="url(#mask4_116_116)">
<path fill-rule="evenodd" clip-rule="evenodd" d="M179.433 225.052C186.152 225.052 191.598 230.498 191.598 237.217C191.598 243.935 186.152 249.381 179.433 249.381H169.296C162.577 249.381 157.131 254.828 157.131 261.546C157.131 268.265 162.577 273.711 169.296 273.711H259.519C266.237 273.711 271.684 268.265 271.684 261.546C271.684 254.828 266.237 249.381 259.519 249.381H249.381L249.38 249.371C242.898 249.105 237.724 243.765 237.724 237.217C237.724 230.668 242.898 225.328 249.38 225.062L249.381 225.052H315.275C321.993 225.052 327.44 219.605 327.44 212.887C327.44 206.168 321.993 200.722 315.275 200.722H113.54C106.821 200.722 101.375 206.168 101.375 212.887C101.375 219.605 106.821 225.052 113.54 225.052H179.433ZM132.801 261.546C132.801 254.828 127.354 249.381 120.636 249.381H57.7836C51.0651 249.381 45.6187 254.828 45.6187 261.546C45.6187 268.265 51.0651 273.711 57.7836 273.711H120.636C127.354 273.711 132.801 268.265 132.801 261.546ZM9.12356 249.381C15.8421 249.381 21.2885 254.828 21.2885 261.546C21.2885 268.265 15.8421 273.711 9.12356 273.711H-19.2613C-25.9798 273.711 -31.4263 268.265 -31.4263 261.546C-31.4263 254.828 -25.9798 249.381 -19.2613 249.381H9.12356ZM490.653 261.546C490.653 254.828 485.206 249.381 478.488 249.381H308.179C301.46 249.381 296.014 254.828 296.014 261.546C296.014 268.265 301.46 273.711 308.179 273.711H478.488C485.206 273.711 490.653 268.265 490.653 261.546ZM555.533 249.381C562.251 249.381 567.698 254.828 567.698 261.546C567.698 268.265 562.251 273.711 555.533 273.711H527.148C520.429 273.711 514.983 268.265 514.983 261.546C514.983 254.828 520.429 249.381 527.148 249.381H555.533ZM520.052 212.887C520.052 206.168 514.605 200.722 507.887 200.722H363.935C357.216 200.722 351.77 206.168 351.77 212.887C351.77 219.605 357.216 225.052 363.935 225.052H507.887C514.605 225.052 520.052 219.605 520.052 212.887ZM607.234 200.722C613.952 200.722 619.399 206.168 619.399 212.887C619.399 219.605 613.952 225.052 607.234 225.052H556.546C549.828 225.052 544.381 219.605 544.381 212.887C544.381 206.168 549.828 200.722 556.546 200.722H607.234ZM52.7148 212.887C52.7148 206.168 47.2683 200.722 40.5498 200.722H12.1649C5.44643 200.722 0 206.168 0 212.887C0 219.605 5.44643 225.052 12.1649 225.052H40.5498C47.2683 225.052 52.7148 219.605 52.7148 212.887Z" fill="#FE3419"/>
</g>
<mask id="mask5_116_116" style="mask-type:luminance" maskUnits="userSpaceOnUse" x="0" y="0" width="590" height="590">
<circle cx="295" cy="295" r="295" fill="white"/>
</mask>
<g mask="url(#mask5_116_116)">
<rect opacity="0.0775757" x="295" width="296.014" height="590" fill="black"/>
<path fill-rule="evenodd" clip-rule="evenodd" d="M291.5 581C452.491 581 583 452.73 583 294.5C583 136.27 452.491 8 291.5 8V581Z" fill="#FF6B0E"/>
<mask id="mask6_116_116" style="mask-type:luminance" maskUnits="userSpaceOnUse" x="291" y="8" width="292" height="573">
<path fill-rule="evenodd" clip-rule="evenodd" d="M291.5 581C452.491 581 583 452.73 583 294.5C583 136.27 452.491 8 291.5 8V581Z" fill="white"/>
</mask>
<g mask="url(#mask6_116_116)">
<ellipse cx="293.506" cy="296.472" rx="278.797" ry="274.015" fill="#FFCD29"/>
<ellipse cx="294.175" cy="294.5" rx="238.014" ry="233.931" fill="#FFC402"/>
<ellipse cx="294.174" cy="294.5" rx="143.076" ry="140.622" fill="#FF6200"/>
<ellipse cx="292.837" cy="295.814" rx="68.1949" ry="67.0252" fill="#FE2222"/>
</g>
</g>
</svg>
